<svg xmlns="http://www.w3.org/2000/svg" width="85.333" height="85.333" viewBox="0 0 64 64">
  <defs>
    <linearGradient id="gradient-top-dark" x1="0%" y1="0%" x2="100%" y2="0%">
      <stop offset="0%" style="stop-color: #f4ff20; stop-opacity: 1" />
      <stop offset="100%" style="stop-color: #20efbb; stop-opacity: 1" />
    </linearGradient>
  </defs>

  <style>
    path.top { fill: url(#gradient-top-dark); }
    path.mid { fill: #e6e6e6; }
    path.bot { fill: #e6e6e6; }
  </style>
  <path class="top" d="M20.5 4.3c-6.6 3.1-13.1 10.5-15 17C3 29.9 3 30 10.8 30h6.8l1.8-3.9c5-11.4 21.2-10.7 25.7 1.1 1.1 2.7 1.4 2.8 8 2.8 7.9 0 8-.1 5.4-8.7-1.8-6-8.1-13.5-13.9-16.5-2.8-1.4-6.5-2.3-11.6-2.5-6.4-.3-8.3 0-12.5 2"/>
  <path class="mid"  d="M25.5 25.5c-3.5 3.4-3.5 9.6 0 13C27.3 40.4 29 41 32 41c5.5 0 9-3.4 9-8.8 0-8.2-9.8-12.5-15.5-6.7M35 29c1.1 1.1 2 2.4 2 3 0 .5-.9 1.9-2 3s-2.4 2-3 2c-.5 0-1.9-.9-3-2s-2-2.5-2-3c0-.6.9-1.9 2-3s2.5-2 3-2c.6 0 1.9.9 3 2"/>
  <path class="bot"  d="M4 35.8c0 8 7.4 19.2 15.4 23.5 5.9 3.1 19.3 3.1 25.2 0s12.1-10.6 13.9-16.6C61 34.1 61 34 53.3 34h-6.8l-2 3.7C41.9 42.6 36.7 46 32 46s-9.9-3.4-12.5-8.3l-2-3.7h-6.7c-5.9 0-6.8.2-6.8 1.8"/>
</svg>